<svg width="17" height="17" viewBox="0 0 17 17" fill="none" xmlns="http://www.w3.org/2000/svg">
<path fill-rule="evenodd" clip-rule="evenodd" d="M7.83333 3.83333C7.83333 3.47971 7.69286 3.14057 7.44281 2.89052C7.19276 2.64048 6.85362 2.5 6.5 2.5H3.83333C3.47971 2.5 3.14057 2.64048 2.89052 2.89052C2.64048 3.14057 2.5 3.47971 2.5 3.83333V6.5C2.5 6.85362 2.64048 7.19276 2.89052 7.44281C3.14057 7.69286 3.47971 7.83333 3.83333 7.83333H6.5C6.85362 7.83333 7.19276 7.69286 7.44281 7.44281C7.69286 7.19276 7.83333 6.85362 7.83333 6.5V3.83333ZM3.83333 3.83333H6.5V6.5H3.83333V3.83333ZM14.5 3.83333C14.5 3.47971 14.3595 3.14057 14.1095 2.89052C13.8594 2.64048 13.5203 2.5 13.1667 2.5H10.5C10.1464 2.5 9.80724 2.64048 9.55719 2.89052C9.30714 3.14057 9.16667 3.47971 9.16667 3.83333V6.5C9.16667 6.85362 9.30714 7.19276 9.55719 7.44281C9.80724 7.69286 10.1464 7.83333 10.5 7.83333H13.1667C13.5203 7.83333 13.8594 7.69286 14.1095 7.44281C14.3595 7.19276 14.5 6.85362 14.5 6.5V3.83333ZM10.5 3.83333H13.1667V6.5H10.5V3.83333ZM6.5 9.16667C6.85362 9.16667 7.19276 9.30714 7.44281 9.55719C7.69286 9.80724 7.83333 10.1464 7.83333 10.5V13.1667C7.83333 13.5203 7.69286 13.8594 7.44281 14.1095C7.19276 14.3595 6.85362 14.5 6.5 14.5H3.83333C3.47971 14.5 3.14057 14.3595 2.89052 14.1095C2.64048 13.8594 2.5 13.5203 2.5 13.1667V10.5C2.5 10.1464 2.64048 9.80724 2.89052 9.55719C3.14057 9.30714 3.47971 9.16667 3.83333 9.16667H6.5ZM6.5 10.5H3.83333V13.1667H6.5V10.5ZM9.16667 11.8333C9.16667 11.6565 9.23691 11.487 9.36193 11.3619C9.48695 11.2369 9.65652 11.1667 9.83333 11.1667H11.1667V9.83333C11.1667 9.65652 11.2369 9.48695 11.3619 9.36193C11.487 9.23691 11.6565 9.16667 11.8333 9.16667C12.0101 9.16667 12.1797 9.23691 12.3047 9.36193C12.4298 9.48695 12.5 9.65652 12.5 9.83333V11.1667H13.8333C14.0101 11.1667 14.1797 11.2369 14.3047 11.3619C14.4298 11.487 14.5 11.6565 14.5 11.8333C14.5 12.0101 14.4298 12.1797 14.3047 12.3047C14.1797 12.4298 14.0101 12.5 13.8333 12.5H12.5V13.8333C12.5 14.0101 12.4298 14.1797 12.3047 14.3047C12.1797 14.4298 12.0101 14.5 11.8333 14.5C11.6565 14.5 11.487 14.4298 11.3619 14.3047C11.2369 14.1797 11.1667 14.0101 11.1667 13.8333V12.5H9.83333C9.65652 12.5 9.48695 12.4298 9.36193 12.3047C9.23691 12.1797 9.16667 12.0101 9.16667 11.8333Z" fill="#212121"/>
</svg>
