<svg width="18" height="18" viewBox="0 0 18 18" fill="none" xmlns="http://www.w3.org/2000/svg">
<path d="M2.72698 8.46964C2.58637 8.61029 2.50739 8.80102 2.50739 8.99989C2.50739 9.19876 2.58637 9.38949 2.72698 9.53014L6.96973 13.7729C7.11118 13.9095 7.30063 13.9851 7.49728 13.9834C7.69392 13.9817 7.88203 13.9028 8.02109 13.7638C8.16014 13.6247 8.23902 13.4366 8.24073 13.2399C8.24244 13.0433 8.16684 12.8538 8.03022 12.7124L5.06773 9.74989H15C15.1989 9.74989 15.3897 9.67087 15.5303 9.53022C15.671 9.38957 15.75 9.1988 15.75 8.99989C15.75 8.80098 15.671 8.61021 15.5303 8.46956C15.3897 8.32891 15.1989 8.24989 15 8.24989H5.06773L8.03022 5.28739C8.16684 5.14594 8.24244 4.95649 8.24073 4.75984C8.23902 4.56319 8.16014 4.37508 8.02109 4.23603C7.88203 4.09697 7.69392 4.01809 7.49728 4.01639C7.30063 4.01468 7.11118 4.09027 6.96973 4.22689L2.72698 8.46964Z" fill="black"/>
</svg>
