<svg width="20" height="16" viewBox="0 0 20 16" fill="none" xmlns="http://www.w3.org/2000/svg">
<path d="M1.72681 1.24062L5.68268 4.72137L9.20711 0.381865C9.3058 0.260548 9.43058 0.163059 9.57218 0.0966575C9.71377 0.0302562 9.86852 -0.00334634 10.0249 -0.00164764C10.1813 5.10484e-05 10.3353 0.0370072 10.4754 0.106469C10.6155 0.17593 10.7381 0.276107 10.8342 0.399539L14.1974 4.72033L18.2812 1.18967C18.4416 1.05131 18.6404 0.965224 18.851 0.942946C19.0616 0.920668 19.2741 0.963259 19.4598 1.06502C19.6456 1.16678 19.7958 1.32285 19.8905 1.51235C19.9851 1.70184 20.0196 1.91572 19.9893 2.12536L18.4299 12.8826H1.59477L0.0113832 2.17422C-0.0200692 1.96342 0.0140288 1.74804 0.109059 1.55726C0.204089 1.36648 0.355459 1.20952 0.542667 1.10763C0.729875 1.00575 0.943874 0.963861 1.15568 0.987647C1.36749 1.01143 1.56686 1.09974 1.72681 1.24062ZM1.67587 13.9223H18.3103V14.9619C18.3103 15.2377 18.2008 15.5021 18.0058 15.6971C17.8108 15.8921 17.5464 16.0016 17.2706 16.0016H2.71552C2.43979 16.0016 2.17535 15.8921 1.98037 15.6971C1.7854 15.5021 1.67587 15.2377 1.67587 14.9619V13.9223Z" fill="#2961C9"/>
</svg>
